<?xml version="1.0" encoding="iso-8859-1"?>
<!-- Uploaded to: SVG Repo, www.svgrepo.com, Generator: SVG Repo Mixer Tools -->
<!DOCTYPE svg PUBLIC "-//W3C//DTD SVG 1.1//EN" "http://www.w3.org/Graphics/SVG/1.1/DTD/svg11.dtd">
<svg fill="#000000" version="1.1" class="main_logo" id="Capa_1" xmlns="http://www.w3.org/2000/svg" xmlns:xlink="http://www.w3.org/1999/xlink" 
	 width="20px" height="20px" viewBox="0 0 326.629 326.629"
	 xml:space="preserve">
<g>
	<g>
		<path d="M320.138,5.033c-4.479-3.542-12.759-2.814-25.083-1.856C282.736,4.137,281.291,0,281.291,0
			c-9.107,22.341-46.437,44.615-46.437,44.615c7.125,7.41,5.68,15.34,4.096,19.558l-70.552,82.747
			c-2.393-1.414-5.842-1.222-8.068,0.43c-6.664,4.938-19.565,13.013-25.212,6.429c-12.526-19.012-4.979-38.665-4.979-38.665
			C21.599,139.379,22.196,244.604,22.196,244.604C148.669,280.121,5.95,305.328,5.95,305.328
			c117.74,86.128,254.328-116.757,254.328-116.757c-26.874,0.854-48.301-0.688-65.508-3.77c-2.563-0.85-7.1-3.967-3.299-15.395
			c0.922-2.775,0.005-6.299-2.387-7.984l-0.316-0.223l66.415-81.68c9.32-8.36,26.486-8.567,26.486-8.567
			C300.404,12.117,324.611,8.575,320.138,5.033z"/>
	</g>
</g>
</svg>